<svg width="17" height="16" viewBox="0 0 17 16" fill="none" xmlns="http://www.w3.org/2000/svg">
<path d="M8.20312 0C3.6709 0 0 3.67295 0 8.20312C0 11.8282 2.35019 14.9023 5.60888 15.9858C6.01904 16.0631 6.16943 15.8095 6.16943 15.5914C6.16943 15.3966 6.16259 14.8805 6.15917 14.1969C3.87734 14.6918 3.39609 13.0963 3.39609 13.0963C3.02285 12.1495 2.48349 11.8966 2.48349 11.8966C1.74043 11.388 2.54092 11.3982 2.54092 11.3982C3.36465 11.4557 3.79736 12.2432 3.79736 12.2432C4.5288 13.4975 5.71757 13.1352 6.18652 12.9254C6.26035 12.3949 6.47158 12.0333 6.70605 11.8282C4.88427 11.6231 2.96953 10.9177 2.96953 7.77451C2.96953 6.879 3.2874 6.14755 3.81377 5.57334C3.72148 5.36621 3.44463 4.53222 3.88554 3.40224C3.88554 3.40224 4.57256 3.18213 6.1414 4.24306C6.79765 4.06054 7.49492 3.97031 8.19218 3.96621C8.88945 3.97031 9.58671 4.06054 10.243 4.24306C11.8016 3.18213 12.4886 3.40224 12.4886 3.40224C12.9295 4.53222 12.6526 5.36621 12.5706 5.57334C13.0935 6.14755 13.4114 6.879 13.4114 7.77451C13.4114 10.9259 11.4939 11.6197 9.66874 11.8214C9.95585 12.0675 10.2225 12.5706 10.2225 13.339C10.2225 14.4368 10.2122 15.3186 10.2122 15.5852C10.2122 15.8006 10.3558 16.0569 10.7762 15.9749C14.0581 14.8989 16.4062 11.8227 16.4062 8.20312C16.4062 3.67295 12.7333 0 8.20312 0Z" fill="black"/>
</svg>
